<?xml version="1.0" standalone="no"?>
<!DOCTYPE svg PUBLIC "-//W3C//DTD SVG 20010904//EN"
 "http://www.w3.org/TR/2001/REC-SVG-20010904/DTD/svg10.dtd">
<svg version="1.0" xmlns="http://www.w3.org/2000/svg"
 width="1024.000000pt" height="1024.000000pt" viewBox="0 0 1024.000000 1024.000000"
 preserveAspectRatio="xMidYMid meet">

<g transform="translate(0.000000,1024.000000) scale(0.100000,-0.100000)"
fill="#000000" stroke="none">
<path d="M5055 8682 c-38 -21 -223 -116 -410 -211 -187 -96 -421 -215 -520
-266 -99 -51 -292 -150 -430 -220 -435 -222 -695 -355 -860 -440 -88 -46 -259
-133 -380 -195 -271 -138 -686 -351 -860 -441 l-130 -68 -3 -1660 -2 -1661 80
0 80 0 0 1619 0 1619 33 5 c27 4 66 -13 247 -110 118 -64 253 -137 300 -163
47 -26 135 -73 195 -106 95 -50 549 -295 626 -337 25 -14 27 -21 33 -108 4
-52 5 -519 4 -1038 -3 -931 -3 -944 -23 -956 -11 -6 -85 -47 -165 -90 -80 -43
-167 -90 -195 -105 -168 -91 -498 -268 -605 -323 -68 -36 -126 -70 -127 -74
-4 -10 -16 -2 299 -184 145 -83 304 -175 353 -204 50 -29 196 -112 325 -185
129 -73 271 -154 315 -181 44 -26 285 -164 535 -306 250 -143 661 -378 913
-522 l458 -262 172 99 c95 55 246 142 337 194 91 52 326 188 522 302 940 542
1087 627 1273 734 110 63 225 130 255 147 30 18 141 82 245 142 105 61 216
125 247 144 l58 34 1 115 c2 279 0 2332 -3 2335 -2 2 -36 -43 -76 -101 l-72
-104 0 -1036 0 -1036 -24 15 c-13 9 -108 61 -212 118 -650 350 -905 489 -937
511 l-28 20 23 36 c12 21 141 217 287 437 145 220 314 476 375 569 61 93 210
319 331 503 656 993 785 1191 785 1201 0 10 -23 22 -255 142 -88 45 -223 115
-300 155 -283 147 -456 235 -720 370 -277 141 -507 259 -770 395 -82 43 -285
146 -450 230 -295 150 -465 237 -857 439 -108 55 -202 101 -210 101 -7 0 -44
-17 -83 -38z m7 -832 l3 -660 75 43 75 43 3 617 c1 339 5 617 8 617 4 0 74
-35 158 -79 83 -43 311 -160 506 -259 195 -99 451 -229 567 -289 117 -59 213
-111 213 -114 0 -4 -80 -51 -177 -104 -98 -54 -241 -133 -318 -175 -77 -43
-167 -92 -200 -110 -33 -18 -107 -58 -165 -90 -58 -32 -206 -113 -330 -180
-124 -68 -292 -160 -375 -205 -82 -45 -190 -103 -240 -130 -49 -27 -198 -108
-330 -180 -132 -72 -379 -207 -550 -300 -170 -92 -361 -196 -423 -231 -62 -35
-117 -64 -123 -64 -7 0 -53 22 -103 49 -50 27 -116 62 -146 78 -283 152 -627
337 -635 343 -5 4 -64 36 -130 70 -66 35 -154 82 -195 105 -41 23 -100 55
-130 72 -187 101 -250 137 -250 144 0 10 87 57 445 239 289 147 489 249 830
425 88 45 502 257 920 470 418 214 814 417 880 451 66 35 123 64 127 64 5 0 9
-297 10 -660z m2004 -278 c115 -60 308 -159 429 -222 253 -129 422 -217 723
-372 117 -61 211 -115 210 -120 -4 -10 -131 -80 -1318 -718 -69 -37 -177 -96
-240 -130 -63 -34 -182 -98 -263 -141 -81 -44 -178 -95 -215 -115 -37 -20
-101 -55 -142 -77 -93 -50 -123 -66 -285 -154 -123 -67 -291 -157 -663 -358
l-162 -87 -228 123 c-125 67 -265 143 -312 167 -47 25 -152 82 -235 127 -82
45 -186 102 -230 125 -44 23 -132 71 -195 106 -63 34 -149 81 -190 104 -41 22
-90 48 -107 57 -18 9 -33 20 -33 24 0 8 171 103 780 434 250 136 548 298 661
361 113 62 275 151 360 197 85 46 235 128 334 182 278 151 288 156 320 175 17
9 62 34 100 55 109 58 178 96 335 182 80 44 177 97 215 118 39 21 79 44 90 51
11 8 27 14 36 14 8 0 110 -49 225 -108z m1158 -1144 c-263 -398 -554 -838
-649 -983 -54 -82 -149 -226 -210 -320 -377 -573 -605 -915 -613 -915 -4 0
-16 6 -27 13 -17 12 -146 82 -775 420 -323 174 -607 331 -619 343 -8 7 -13 15
-10 17 6 6 229 127 233 127 2 0 39 20 82 43 158 88 604 328 914 494 124 66
281 151 350 188 69 37 154 83 190 103 36 19 88 47 115 62 28 15 91 49 140 75
50 26 104 55 120 65 29 17 65 36 270 145 50 26 167 90 260 141 312 170 350
190 353 182 2 -4 -54 -94 -124 -200z m-4882 -554 c68 -36 137 -74 153 -84 17
-9 84 -45 150 -80 66 -35 174 -92 240 -128 66 -35 158 -85 205 -110 47 -24
103 -54 125 -67 48 -26 543 -293 665 -358 46 -25 86 -49 87 -54 2 -4 -41 -31
-95 -59 -93 -48 -816 -437 -1202 -646 -102 -56 -216 -118 -255 -138 -38 -21
-100 -54 -136 -73 -58 -31 -67 -34 -71 -19 -4 21 3 1882 7 1882 2 0 59 -30
127 -66z m1718 -1779 c0 -421 -3 -765 -6 -765 -3 0 -36 17 -72 39 -37 21 -96
54 -132 73 -36 20 -272 150 -525 290 -253 140 -487 270 -520 288 -148 82 -148
81 -134 95 8 7 59 36 114 65 55 29 241 129 415 223 173 93 351 189 395 213 44
23 163 88 265 143 102 55 188 100 193 101 4 0 7 -344 7 -765z m389 648 c119
-64 234 -126 256 -138 22 -13 101 -55 175 -95 218 -117 262 -141 315 -170 28
-15 91 -49 140 -75 50 -26 119 -64 155 -84 36 -20 91 -49 123 -66 31 -16 55
-35 53 -41 -4 -10 -172 -267 -553 -844 -575 -872 -876 -1326 -884 -1334 -5 -6
-9 595 -9 1477 0 818 3 1487 6 1487 4 0 104 -52 223 -117z m-1377 -1041 c315
-176 593 -330 618 -343 25 -13 118 -65 208 -114 l162 -90 0 -713 0 -714 -32
20 c-18 10 -181 104 -363 207 -351 199 -575 328 -665 381 -30 18 -118 68 -195
112 -77 43 -180 103 -230 132 -49 28 -135 77 -190 108 -55 30 -143 80 -195
110 -52 31 -201 116 -330 189 -129 74 -319 182 -422 241 -103 59 -188 110
-188 114 0 4 28 22 63 41 342 187 464 253 687 372 261 140 304 163 395 214 50
27 93 50 97 50 4 1 265 -142 580 -317z m2857 241 c170 -90 231 -123 313 -170
43 -23 79 -43 81 -43 2 0 94 -49 203 -108 110 -60 265 -144 347 -187 81 -44
147 -82 147 -86 0 -6 -71 -50 -195 -119 -22 -12 -114 -65 -205 -118 -91 -52
-268 -155 -395 -227 -126 -73 -286 -165 -355 -205 -171 -100 -492 -285 -685
-395 -88 -50 -241 -138 -340 -196 -378 -221 -466 -271 -470 -267 -4 4 93 154
514 793 87 132 237 359 333 505 96 146 237 360 313 475 76 116 167 254 202
308 34 53 68 97 74 97 7 0 60 -25 118 -57z"/>
<path d="M8666 6404 c-3 -26 -6 -685 -6 -1465 l0 -1419 80 0 80 0 0 1465 0
1465 -74 0 -73 0 -7 -46z"/>
</g>
</svg>
